<svg width="657" height="842" viewBox="0 0 657 842" fill="none" xmlns="http://www.w3.org/2000/svg">
<path fill-rule="evenodd" clip-rule="evenodd" d="M0.283262 1.25C0.0222619 1.938 -0.0767379 148.975 0.0642621 328L0.320263 653.5L95.0703 653.755L189.82 654.01V546.01V438.009L293.57 437.755L397.32 437.5L397.593 419.75C397.743 409.988 398.074 402 398.328 402C398.581 402 405.059 406.5 412.722 412C420.386 417.5 426.895 422 427.187 422C427.966 422 436.828 409.401 436.773 408.373C436.747 407.893 427.972 401.273 417.273 393.662L397.82 379.824V342.305C397.82 307.84 397.954 304.838 399.471 305.42C400.379 305.768 413.879 313.728 429.471 323.108L457.82 340.163L457.835 362.832C457.844 375.299 458.22 386.083 458.672 386.795C459.259 387.72 461.752 388.006 467.407 387.795L475.32 387.5L475.593 369.75C475.743 359.987 476.213 352 476.636 352C477.06 352 483.387 355.6 490.696 360C498.006 364.4 504.286 367.991 504.653 367.981C505.89 367.945 512.986 354.874 512.481 353.56C512.207 352.844 506.073 348.758 498.85 344.48C491.628 340.202 486.079 336.35 486.519 335.921C486.96 335.491 494.07 331.663 502.32 327.415C510.57 323.166 517.486 319.556 517.69 319.392C517.978 319.16 511.305 305.392 510.345 304.236C510.225 304.091 500.593 308.704 488.942 314.486C477.29 320.269 467.434 324.982 467.038 324.961C465.415 324.873 407.508 289.421 407.483 288.5C407.468 287.95 420.922 279.459 437.38 269.632L467.304 251.763L488.568 262.382C500.263 268.222 510.049 273 510.313 273C510.893 273 517.82 259.389 517.82 258.25C517.82 257.81 510.62 253.873 501.82 249.5C493.02 245.127 485.82 241.301 485.82 240.996C485.82 240.692 491.895 236.877 499.32 232.518C506.745 228.16 512.82 224.043 512.82 223.369C512.82 222.087 506.043 210.256 504.906 209.553C504.268 209.159 480.263 223.187 478.37 225.06C477.847 225.577 477.06 226 476.62 226C476.18 226 475.82 217.948 475.82 208.107C475.82 194.581 475.511 190.095 474.552 189.727C472.708 189.02 460.354 189.552 458.985 190.398C458.153 190.912 457.82 197.652 457.82 213.944V236.77L455.098 238.553C447.067 243.816 399.62 272 398.793 272C398.18 272 397.82 258.212 397.82 234.708V197.417L416.334 184.043C426.517 176.688 435.338 170.081 435.937 169.359C436.76 168.367 435.967 166.592 432.672 162.053C430.279 158.756 427.645 156.054 426.82 156.048C425.995 156.043 419.475 160.305 412.332 165.519C405.189 170.734 399.001 175 398.582 175C398.163 175 397.82 167.125 397.82 157.5V140H284.822H171.824L171.572 388.75L171.32 637.5H94.3203H17.3203V327V16.5L328.57 16.248L639.82 15.997V326.998V638H455.32H270.82V646V654H463.82H656.82V327V0H328.789C67.2832 0 0.661262 0.254 0.283262 1.25ZM379.987 156.993C380.17 157.539 380.193 169.839 380.039 184.326L379.757 210.666L373.057 211.9C369.372 212.579 363.063 214.506 359.037 216.182C355.01 217.858 351.602 219.066 351.463 218.865C350.035 216.813 309.68 165.707 308.222 164.105C307.695 163.525 294.874 173.348 294.845 174.355C294.825 175.047 319.905 207.441 334.561 225.655L337.905 229.809L331.861 236.617C328.537 240.362 324.356 246.253 322.569 249.709C320.782 253.165 318.922 255.994 318.436 255.996C317.951 255.998 302.426 252.102 283.936 247.338C265.447 242.573 249.247 238.636 247.936 238.588C245.836 238.51 245.334 239.275 243.721 245C242.714 248.575 241.874 252.226 241.855 253.113C241.819 254.791 241.081 254.577 293.511 268.082L313.702 273.282L313.666 284.554C313.646 290.754 313.904 296.69 314.239 297.746C314.675 299.117 314.201 299.971 312.584 300.733C311.339 301.32 295.942 308.386 278.368 316.435C260.795 324.484 246.224 331.263 245.987 331.499C245.29 332.197 252.095 347 253.113 347C253.953 347 274.755 337.631 307.25 322.617C313.812 319.585 319.481 317.29 319.848 317.517C320.215 317.744 322.228 320.858 324.321 324.438C326.414 328.017 330.338 333.426 333.041 336.459C336.122 339.915 337.677 342.444 337.208 343.236C336.798 343.931 333.921 347.65 330.815 351.5C312.612 374.069 294.746 397.267 295.012 397.989C295.373 398.97 306.884 408 307.773 408C308.105 408 318.264 395.417 330.349 380.037C342.433 364.657 352.77 352.256 353.32 352.48C353.87 352.704 357.184 354.076 360.685 355.53C364.186 356.983 369.811 358.735 373.185 359.423L379.32 360.674L379.82 390.922C380.095 407.558 380.132 421.357 379.903 421.585C379.674 421.813 336.812 422 284.653 422H189.82V289V156H284.737C346.69 156 379.769 156.345 379.987 156.993ZM380.054 285.096C380.2 316.498 379.964 342.412 379.528 342.681C378.028 343.607 365.307 339.076 359.32 335.482C332.718 319.514 323.244 286.031 337.572 258.613C342.531 249.123 353.171 238.429 361.959 234.103C367.385 231.432 375.738 228.493 379.054 228.089C379.457 228.04 379.907 253.693 380.054 285.096ZM340.152 713.904C331.596 716.09 324.225 722.767 321.34 730.944C315.153 748.479 327.512 766.079 346.086 766.186C353.045 766.226 360.415 763.669 364.558 759.777C367.408 757.099 367.39 756.42 364.42 754.473C362.142 752.981 361.781 753.068 357.363 756.183C353.302 759.045 351.963 759.448 346.905 759.332C340.463 759.184 336.648 757.582 332.634 753.339C329.123 749.628 327.82 745.993 327.82 739.903C327.82 733.885 329.611 729.4 333.447 725.814C339.283 720.357 348.279 719.379 356.119 723.348L360.757 725.696L362.97 723.341C365.146 721.024 365.15 720.96 363.251 719.434C357.4 714.735 346.818 712.201 340.152 713.904ZM6.82026 740V766H10.2873H13.7543L14.0373 754.75L14.3203 743.5L23.3203 742.957C34.4013 742.288 38.2473 740.476 40.8773 734.684C43.3163 729.312 43.2883 727.598 40.6763 722.202C37.4693 715.577 33.3403 714.05 18.5703 714.022L6.82026 714V740ZM88.2703 715.269C88.0033 715.967 87.9043 727.554 88.0523 741.019L88.3203 765.5H91.8203H95.3203L95.6023 753.75L95.8833 742H98.7883C101.315 742 102.896 743.555 110.985 754C119.944 765.569 120.414 766 124.049 766C126.123 766 127.82 765.547 127.82 764.994C127.82 764.441 124.22 759.296 119.82 753.561C115.42 747.825 111.82 742.697 111.82 742.165C111.82 741.633 113.314 740.316 115.14 739.239C124.233 733.874 123.453 720.7 113.749 715.752C109.436 713.552 89.0773 713.167 88.2703 715.269ZM172.82 740V766H176.32H179.82V740V714H176.32H172.82V740ZM230.053 739.75L230.32 765.5H233.82H237.32L237.82 747.207L238.32 728.913L250.32 743.67C267.218 764.449 268.685 766 271.436 766H273.82V740V714H270.32H266.82V731.941C266.82 741.809 266.449 750.111 265.996 750.391C265.543 750.671 263.721 749.011 261.949 746.7C260.176 744.39 253.459 736.099 247.023 728.274C237.153 716.278 234.887 714.045 232.553 714.024L229.786 714L230.053 739.75ZM412.053 739.689L412.32 765.5H415.82H419.32V740V714.5L415.553 714.189L411.786 713.877L412.053 739.689ZM469.427 715.582C469.093 716.452 468.82 727.44 468.82 740C468.82 752.56 469.093 763.548 469.427 764.418C469.815 765.431 471.255 766 473.427 766H476.82V754.5V743H484.852C494.166 743 498.321 741.57 502.117 737.059C507.514 730.645 504.801 719.772 496.8 715.752C491.925 713.302 470.353 713.168 469.427 715.582ZM550.82 740.026V766.052L566.07 765.776L581.32 765.5L581.631 762.282L581.942 759.065L570.131 758.782L558.32 758.5L558.051 736.25L557.782 714H554.301H550.82V740.026ZM626.27 715.269C626.003 715.967 625.904 727.554 626.052 741.019L626.32 765.5H641.32H656.32L656.633 762.25L656.947 759H645.383H633.82V750.54V742.081L642.07 741.79L650.32 741.5L650.63 737.75L650.941 734H642.38H633.82V727.5V721H644.82H655.82V717.5V714H641.289C630.471 714 626.633 714.324 626.27 715.269ZM32.7183 723.408C35.4953 725.921 35.5023 731.073 32.7323 733.58C30.0263 736.029 16.0833 737.024 14.7163 734.865C13.7013 733.264 13.5323 724.914 14.4653 722.482C15.4273 719.976 29.7273 720.701 32.7183 723.408ZM112.429 723.48C113.194 724.526 113.82 726.621 113.82 728.134C113.82 732.308 110.582 734 102.597 734H95.8203V728.167C95.8203 724.958 96.1583 721.991 96.5703 721.573C96.9823 721.155 100.407 720.985 104.179 721.195C109.476 721.491 111.355 722.011 112.429 723.48ZM493.855 722.518C499.179 725.271 498.753 732.934 493.157 735.062C491.68 735.624 487.512 735.952 483.895 735.792L477.32 735.5L477.016 729.612C476.849 726.374 476.947 723.111 477.235 722.362C477.977 720.427 490.03 720.54 493.855 722.518ZM250.133 799.071C245.822 800.361 242.815 804.409 242.842 808.885C242.872 813.73 245.076 816.189 252.82 820.014C261.388 824.246 262.82 825.627 262.82 829.655C262.82 837.29 253.426 839.922 246.061 834.35C243.356 832.303 242.703 832.141 242.222 833.394C241.402 835.533 242.399 836.745 246.848 839.014C257.134 844.262 268.048 838.185 266.44 828.107C265.717 823.572 262.85 820.736 255.784 817.565C252.552 816.114 248.98 813.748 247.846 812.307C242.762 805.843 251.728 799.267 260.3 803.173C263.984 804.852 265.952 802.778 262.677 800.667C259.488 798.612 254.003 797.914 250.133 799.071ZM372.834 799.703C366.837 802.794 365.057 809.488 368.924 814.405C370.081 815.876 374.044 818.599 377.731 820.455C385.538 824.387 387.153 826.03 387.153 830.04C387.153 838.059 376.036 840.03 368.627 833.326C367.016 831.868 366.808 831.867 366.252 833.316C365.393 835.555 366.363 836.726 371.064 839.125C380.325 843.849 390.82 839.034 390.82 830.061C390.82 824.897 387.505 821.028 380.086 817.533C376.915 816.039 373.532 814.113 372.57 813.253C370.193 811.13 370.365 806.455 372.913 803.907C375.049 801.771 378.798 801.663 386.07 803.528C389.465 804.398 389.759 802.661 386.57 800.574C382.74 798.067 376.747 797.687 372.834 799.703ZM639.198 799.391C635.062 801.252 632.82 804.641 632.82 809.031C632.82 814.026 634.316 815.631 643.385 820.364C651.863 824.788 653.722 827.268 652.428 832.425C650.972 838.228 640.821 839.168 635.329 834.008C633.431 832.225 632.952 832.137 631.921 833.378C630.942 834.557 631.383 835.327 634.313 837.562C641.337 842.92 651.881 841.649 655.303 835.033C658.983 827.917 655.854 822.409 645.225 817.293C637.067 813.367 635.142 810.915 636.797 806.561C637.307 805.219 638.616 803.644 639.706 803.061C642.549 801.54 648.023 801.753 650.49 803.482C652.311 804.757 652.769 804.766 653.78 803.549C656.574 800.181 644.862 796.841 639.198 799.391ZM16.7793 802.204C16.0513 804.017 12.1353 813.1 8.07726 822.389C1.51926 837.396 0.168262 842.466 3.32826 840.208C3.87426 839.819 5.55326 836.913 7.05926 833.75L9.79826 828H19.6323H29.4663L32.3933 834.179C35.1843 840.072 37.8203 842.78 37.8203 839.755C37.8203 836.888 20.9793 799.493 19.5583 799.204C18.6963 799.028 17.5613 800.254 16.7793 802.204ZM76.0503 819.75C76.2803 837.408 76.5443 840.5 77.8203 840.5C79.0963 840.5 79.3603 837.408 79.5903 819.75C79.8553 799.441 79.8173 799 77.8203 799C75.8233 799 75.7853 799.441 76.0503 819.75ZM122.05 819.75C122.28 837.408 122.544 840.5 123.82 840.5C125.043 840.5 125.372 838.513 125.604 829.75L125.888 819H129.274C132.385 819 133.203 819.74 139.337 828.097C146.597 837.989 149.277 841 150.82 841C152.859 841 151.647 838.72 144.679 829.449C140.751 824.224 137.714 819.813 137.929 819.647C138.144 819.481 139.804 818.754 141.617 818.032C147.099 815.848 149.236 809.638 146.395 804.145C144.326 800.143 140.849 799 130.753 799H121.779L122.05 819.75ZM300.82 799.614C300.82 799.952 303.775 804.738 307.387 810.251L313.954 820.274L314.137 830.387C314.286 838.628 314.598 840.5 315.82 840.5C317.032 840.5 317.375 838.613 317.607 830.663L317.895 820.827L324.154 811.163C327.597 805.849 330.757 800.938 331.176 800.25C331.687 799.413 331.278 799 329.937 799C328.515 799 326.219 801.642 322.004 808.126L316.072 817.253L310.196 808.131C306.48 802.362 303.677 799.008 302.57 799.005C301.608 799.002 300.82 799.276 300.82 799.614ZM424.82 800.422C424.82 801.52 426.298 801.977 430.57 802.2L436.32 802.5L436.82 821.253C437.095 831.567 437.657 840.005 438.07 840.003C438.483 840.001 439.27 840 439.82 840C440.451 840 440.82 833.017 440.82 821.05V802.1L446.332 801.8C449.363 801.635 451.839 801.05 451.834 800.5C451.829 799.897 446.465 799.39 438.323 799.222C426.95 798.987 424.82 799.177 424.82 800.422ZM490.82 820.033V841.066L502.058 840.783C511.834 840.537 513.34 840.272 513.631 838.75C513.933 837.177 512.946 837 503.854 837H493.742L494.031 828.25L494.32 819.5L501.57 819.206C507.009 818.986 508.82 818.56 508.82 817.5C508.82 816.44 507.009 816.014 501.57 815.794L494.32 815.5V809V802.5L503.57 802.212C510.889 801.985 512.82 801.62 512.82 800.462C512.82 799.268 510.806 799 501.82 799H490.82V820.033ZM553.266 800.279C552.996 800.983 552.898 810.321 553.048 821.029C553.279 837.549 553.547 840.5 554.82 840.5C556.07 840.5 556.403 837.836 556.82 824.521L557.32 808.543L564.311 820.298C568.862 827.949 571.822 831.954 572.79 831.767C573.608 831.61 576.087 828.495 578.299 824.845C580.51 821.195 583.67 816.024 585.32 813.354L588.32 808.5L588.82 824.419C589.181 835.897 589.669 840.453 590.57 840.752C591.544 841.075 591.82 836.488 591.82 820C591.82 803.515 591.544 798.924 590.57 799.242C589.883 799.467 586.531 804.342 583.121 810.076C579.712 815.809 575.961 822.015 574.786 823.867L572.649 827.233L564.181 813.117C559.524 805.352 555.274 799 554.736 799C554.197 799 553.536 799.576 553.266 800.279ZM140.136 803.15C143.008 804.661 143.786 805.941 143.805 809.177C143.83 813.592 139.729 816 132.185 816H125.82V809V802H131.886C135.222 802 138.934 802.517 140.136 803.15ZM24.0003 814.988C26.0243 819.927 27.2773 824.217 26.7863 824.521C24.9413 825.661 11.8203 824.752 11.8203 823.484C11.8203 822.805 12.9943 819.605 14.4293 816.374C15.8643 813.143 17.4283 809.487 17.9043 808.25C18.3813 807.013 19.1193 806.002 19.5453 806.004C19.9713 806.006 21.9763 810.049 24.0003 814.988Z" fill="white"/>
</svg>
